<svg id="Layer_1" data-name="Layer 1" xmlns="http://www.w3.org/2000/svg" viewBox="0 0 268 44.91"><defs><style>.cls-1{fill:#fff;}</style></defs><path class="cls-1" d="M40.06,43.28h0L36,47.34l-8.14,8.07-.55.55a6.95,6.95,0,0,1-8.69.36,6.28,6.28,0,0,1-2.21-7.21c.2-.44.43-.88.69-1.34l.1-.14C18.07,46.08,19,44.54,19.9,43l.43-.73.34-.56.81-1.36,5.17-8.71.78-1.31,3,3.1.06,0a1,1,0,0,1,.36.88,1,1,0,0,1-.7.64,14.41,14.41,0,0,0-2.79,1.41,2.56,2.56,0,0,0-.34.29,1.89,1.89,0,0,0-.2.2A4.56,4.56,0,0,0,26,38.36a4.5,4.5,0,0,0-.2,2.09,4.37,4.37,0,0,0,1.08,2.31l.11.12a4.38,4.38,0,0,0,5.62.55,5.08,5.08,0,0,0,.57-.47,4.5,4.5,0,0,0,.48-.6,15.73,15.73,0,0,0,1.29-2.49,1,1,0,0,1,.66-.69,1,1,0,0,1,.87.39l3.61,3.7L37.21,46,40,43.3l0,0Z" transform="translate(-16 -12.77)"/><path class="cls-1" d="M54.11,29.57l-2.42,2.35a1,1,0,0,1-.88.37,1,1,0,0,1-.64-.71c0-.09-.18-.45-.38-.91h0a8.21,8.21,0,0,0-1.32-2.22,4.37,4.37,0,1,0-6.26,6.11,11.91,11.91,0,0,0,3.09,1.77c.39.16.64.39.69.66a1,1,0,0,1-.39.87l-4.47,4.36-3.59-3.67a2.68,2.68,0,0,0-1.41-.8l-.19,0a2,2,0,0,0-1,.15l-.11,0a1.75,1.75,0,0,0-.29.18,1.94,1.94,0,0,0-.27.23,2.69,2.69,0,0,0-.64,1v0c0,.05,0,.11-.07.17s-.09.2-.13.31a.37.37,0,0,0,0,.11.61.61,0,0,0-.07.14c0,.07-.07.15-.11.23l0,0-.06.13-.21.38a.31.31,0,0,1-.05.1.59.59,0,0,1,0,.08,1.62,1.62,0,0,0-.1.18l0,0a.75.75,0,0,1-.07.12h0l-.1.15-.05.07,0,.07-.06.08-.17.19a3,3,0,0,1-.64.48l-.13.06-.07,0-.07,0h0l-.07,0,0,0h-.06a.29.29,0,0,1-.1,0l-.19.06-.14,0a2.92,2.92,0,0,1-3.39-3.48l0-.14s0,0,0,0a3.26,3.26,0,0,1,.25-.61,3,3,0,0,1,.52-.69h0a3.46,3.46,0,0,1,.54-.39h0a14.86,14.86,0,0,1,2.08-1h0a3.13,3.13,0,0,0,1-.61,2.22,2.22,0,0,0-.14-3.26L28.23,29c1.45-2.44,2.82-4.76,3.95-6.65l2.92-4.91.35-.6a8.23,8.23,0,0,1,4.13-3.77,4.89,4.89,0,0,1,3.51.07,8.27,8.27,0,0,1,4,3.85l.27.49,2.86,5.09L53.24,28l.84,1.49Z" transform="translate(-16 -12.77)"/><path class="cls-1" d="M65.1,52.79a6.43,6.43,0,0,1-1.42,2.6,7.27,7.27,0,0,1-.56.55,6.93,6.93,0,0,1-8.68.36,7,7,0,0,1-.87-.77h0L51.2,53,47.94,49.5l-5.79-6.18,0,0L46.62,39a2.89,2.89,0,0,0,.71-1.08,2.06,2.06,0,0,0-.5-2.17,2.88,2.88,0,0,0-1-.64h0A16.15,16.15,0,0,1,44,34.14a3.53,3.53,0,0,1-.71-.52,2.86,2.86,0,0,1-.76-1.38l0-.14a2.94,2.94,0,0,1,1.79-3.24l.13-.05.27-.08a2.68,2.68,0,0,1,1.29,0l.14,0a3,3,0,0,1,1.07.52,3.65,3.65,0,0,1,.3.27l.16.19a12.25,12.25,0,0,1,1.21,2.43v0a2.81,2.81,0,0,0,.61,1,.94.94,0,0,0,.1.1,2.06,2.06,0,0,0,1.4.56,2.16,2.16,0,0,0,.65-.11A2.79,2.79,0,0,0,52.7,33l2.16-2.11c.21.36.41.72.61,1.09l5,8.83c.39.68.76,1.34,1.1,1.95l2.79,5,.34.6,0,.1a6.26,6.26,0,0,1,.4,4.32Z" transform="translate(-16 -12.77)"/><path class="cls-1" d="M42.15,43.32" transform="translate(-16 -12.77)"/><path class="cls-1" d="M40.06,43.28" transform="translate(-16 -12.77)"/><path class="cls-1" d="M27.33,30.6" transform="translate(-16 -12.77)"/><path class="cls-1" d="M84.37,32.32,77.77,49.6H70.9L81.49,21.36A3.14,3.14,0,0,1,82.64,20a3.08,3.08,0,0,1,1.71-.49,3.26,3.26,0,0,1,1.73.49,3,3,0,0,1,1.18,1.35L98,49.62H91.11Z" transform="translate(-16 -12.77)"/><path class="cls-1" d="M112.44,34.08q4.57,0,4.58-4t-4.58-4H108V49.64H101.2v-30h12.27q10.57,0,10.58,10.45T113.47,40.57h-3V34.08Z" transform="translate(-16 -12.77)"/><path class="cls-1" d="M138.5,34.08q4.58,0,4.58-4t-4.58-4H134V49.64h-6.77v-30h12.27q10.58,0,10.58,10.45T139.53,40.57h-3V34.08Z" transform="translate(-16 -12.77)"/><path class="cls-1" d="M166.78,32.32l-6.6,17.28h-6.86L163.9,21.36A3.14,3.14,0,0,1,165.05,20a3.1,3.1,0,0,1,1.71-.49,3.26,3.26,0,0,1,1.73.49,2.9,2.9,0,0,1,1.18,1.35L180.4,49.62h-6.88Z" transform="translate(-16 -12.77)"/><path class="cls-1" d="M195.07,43.12q5.43,0,5.43-8.59T195.07,26h-4.73V37.54h0V49.62h-6.69V19.67l12.48,0q11.44,0,11.44,15.07,0,14.88-11.44,14.9h-3.35v-6.5Z" transform="translate(-16 -12.77)"/><path class="cls-1" d="M225.15,19.48q10.75,0,10.75,15.17T225.15,49.83h-4.73q-10.75,0-10.75-15.18t10.75-15.17Zm-2,6.45h-.75q-5.83,0-5.84,7v3.64q0,6.86,6,6.86H223q6,0,6-6.86V32.94Q229,26,223.16,25.93Z" transform="translate(-16 -12.77)"/><path class="cls-1" d="M245.84,25.89V49.62h-6.71l0-29.95H254.8a7.44,7.44,0,0,1,5.43,1.94,7.15,7.15,0,0,1,2.07,5.54,8,8,0,0,1-2.41,5.71L257.26,36a2,2,0,0,0-.2,2.09l6.46,11.57h-8.21l-5-9.75c-1.18-2.42-1.18-4.35,0-5.77l4.92-5.9a2.34,2.34,0,0,0,.62-1.52c0-.53-.34-.79-1-.79Z" transform="translate(-16 -12.77)"/><path class="cls-1" d="M284,49.62H270.26q-5.67,0-5.67-6.09V25.1q0-5.42,5.67-5.41H284v6.43H271.52v5.37h10.36v6.37H271.52v5.3H284Z" transform="translate(-16 -12.77)"/></svg>